<?xml version="1.0" encoding="UTF-8" standalone="no"?><!DOCTYPE svg PUBLIC "-//W3C//DTD SVG 1.1//EN" "http://www.w3.org/Graphics/SVG/1.1/DTD/svg11.dtd"><svg width="100%" height="100%" viewBox="0 0 100 100" version="1.1" xmlns="http://www.w3.org/2000/svg" xmlns:xlink="http://www.w3.org/1999/xlink" xml:space="preserve" xmlns:serif="http://www.serif.com/" style="fill-rule:evenodd;clip-rule:evenodd;stroke-linecap:round;stroke-linejoin:round;stroke-miterlimit:1.5;"><path d="M29.911,11.12c4.178,10.006 4.796,21.482 4.883,32.171c0.095,11.504 -0.836,22.944 -3.224,34.212c-0.917,4.327 -1.453,8.963 -2.938,13.153" style="fill:none;stroke:#000;stroke-width:1px;"/><path d="M24.37,13.175c1.245,-2.099 2.368,-4.298 3.05,-6.651c0.17,-0.586 0.29,-1.186 0.386,-1.789c0.01,-0.062 0.05,-0.591 0.084,-0.602c0.152,-0.051 0.711,0.204 0.849,0.252c0.809,0.281 1.587,0.666 2.361,1.029c2.524,1.185 5.126,2.323 7.887,2.824" style="fill:none;stroke:#000;stroke-width:1px;"/><path d="M22.692,86.132c1.244,2.099 2.367,4.298 3.049,6.65c0.17,0.587 0.291,1.187 0.386,1.79c0.01,0.062 0.05,0.591 0.085,0.602c0.152,0.05 0.711,-0.205 0.849,-0.253c0.808,-0.28 1.587,-0.666 2.36,-1.028c2.524,-1.185 5.127,-2.324 7.887,-2.824" style="fill:none;stroke:#000;stroke-width:1px;"/><g transform="matrix(1,0,0,1,-11.5906,-9.76942)"><text x="62.379px" y="29.146px" style="font-family:'MVBoli', 'MV Boli';font-style:italic;font-size:8.333px;">drag up</text><text x="62.379px" y="37.479px" style="font-family:'MVBoli', 'MV Boli';font-style:italic;font-size:8.333px;">to discard</text></g><g transform="matrix(1,0,0,1,-13.3304,51.7522)"><text x="62.379px" y="29.146px" style="font-family:'MVBoli', 'MV Boli';font-style:italic;font-size:8.333px;">drag down</text><text x="62.379px" y="37.479px" style="font-family:'MVBoli', 'MV Boli';font-style:italic;font-size:8.333px;">to save</text></g></svg>